<svg xmlns="http://www.w3.org/2000/svg" width="1280" height="640" viewBox="0 0 1280 640">
<rect width="1280" height="640" rx="12" fill="#ffffff"/>
<text x="88" y="276" font-family="ui-sans-serif, system-ui, -apple-system, 'Apple SD Gothic Neo', sans-serif" font-size="80" font-weight="800" letter-spacing="-1" fill="#1c2023">ORDINARY</text>
<text x="88" y="364" font-family="ui-sans-serif, system-ui, -apple-system, 'Apple SD Gothic Neo', sans-serif" font-size="80" font-weight="800" letter-spacing="-1" fill="#1c2023">PALETTE</text>
<text x="90" y="420" font-family="ui-sans-serif, system-ui, -apple-system, 'Apple SD Gothic Neo', sans-serif" font-size="24" font-weight="500" fill="#61686f">13 families × 10 steps, light and dark</text>
<text x="638" y="135" text-anchor="end" font-family="ui-monospace, SFMono-Regular, Menlo, monospace" font-size="12" fill="#61686f">50</text>
<rect x="652" y="113" width="36" height="36" rx="8" fill="#feeff4"/>
<rect x="694" y="113" width="36" height="36" rx="8" fill="#ffefed"/>
<rect x="736" y="113" width="36" height="36" rx="8" fill="#fcf1e8"/>
<rect x="778" y="113" width="36" height="36" rx="8" fill="#fdf3da"/>
<rect x="820" y="113" width="36" height="36" rx="8" fill="#f0f5e9"/>
<rect x="862" y="113" width="36" height="36" rx="8" fill="#ebf6ed"/>
<rect x="904" y="113" width="36" height="36" rx="8" fill="#e7f7f7"/>
<rect x="946" y="113" width="36" height="36" rx="8" fill="#e8f6fc"/>
<rect x="988" y="113" width="36" height="36" rx="8" fill="#eaf5fe"/>
<rect x="1030" y="113" width="36" height="36" rx="8" fill="#f1f3ff"/>
<rect x="1072" y="113" width="36" height="36" rx="8" fill="#f8f2ec"/>
<rect x="1114" y="113" width="36" height="36" rx="8" fill="#f7f8fa"/>
<rect x="1156" y="113" width="36" height="36" rx="8" fill="#f8f8f8"/>
<text x="638" y="177" text-anchor="end" font-family="ui-monospace, SFMono-Regular, Menlo, monospace" font-size="12" fill="#61686f">100</text>
<rect x="652" y="155" width="36" height="36" rx="8" fill="#fcdee8"/>
<rect x="694" y="155" width="36" height="36" rx="8" fill="#ffdfda"/>
<rect x="736" y="155" width="36" height="36" rx="8" fill="#fae2d0"/>
<rect x="778" y="155" width="36" height="36" rx="8" fill="#ffecbd"/>
<rect x="820" y="155" width="36" height="36" rx="8" fill="#e2ecd2"/>
<rect x="862" y="155" width="36" height="36" rx="8" fill="#d5efdd"/>
<rect x="904" y="155" width="36" height="36" rx="8" fill="#cdf0ef"/>
<rect x="946" y="155" width="36" height="36" rx="8" fill="#d0ecfb"/>
<rect x="988" y="155" width="36" height="36" rx="8" fill="#d5eaff"/>
<rect x="1030" y="155" width="36" height="36" rx="8" fill="#e6e4ff"/>
<rect x="1072" y="155" width="36" height="36" rx="8" fill="#f3e5d9"/>
<rect x="1114" y="155" width="36" height="36" rx="8" fill="#f2f4f5"/>
<rect x="1156" y="155" width="36" height="36" rx="8" fill="#f3f3f3"/>
<text x="638" y="219" text-anchor="end" font-family="ui-monospace, SFMono-Regular, Menlo, monospace" font-size="12" fill="#61686f">200</text>
<rect x="652" y="197" width="36" height="36" rx="8" fill="#f9bfd3"/>
<rect x="694" y="197" width="36" height="36" rx="8" fill="#fdc1b9"/>
<rect x="736" y="197" width="36" height="36" rx="8" fill="#f5c8a4"/>
<rect x="778" y="197" width="36" height="36" rx="8" fill="#ffe29b"/>
<rect x="820" y="197" width="36" height="36" rx="8" fill="#c8daa7"/>
<rect x="862" y="197" width="36" height="36" rx="8" fill="#afe0be"/>
<rect x="904" y="197" width="36" height="36" rx="8" fill="#9be1e1"/>
<rect x="946" y="197" width="36" height="36" rx="8" fill="#a4dbf8"/>
<rect x="988" y="197" width="36" height="36" rx="8" fill="#b0d6ff"/>
<rect x="1030" y="197" width="36" height="36" rx="8" fill="#cfcbfe"/>
<rect x="1072" y="197" width="36" height="36" rx="8" fill="#e6cdb9"/>
<rect x="1114" y="197" width="36" height="36" rx="8" fill="#e7eaed"/>
<rect x="1156" y="197" width="36" height="36" rx="8" fill="#e9e9e9"/>
<text x="638" y="261" text-anchor="end" font-family="ui-monospace, SFMono-Regular, Menlo, monospace" font-size="12" fill="#61686f">300</text>
<rect x="652" y="239" width="36" height="36" rx="8" fill="#ff95be"/>
<rect x="694" y="239" width="36" height="36" rx="8" fill="#ff998f"/>
<rect x="736" y="239" width="36" height="36" rx="8" fill="#faaa76"/>
<rect x="778" y="239" width="36" height="36" rx="8" fill="#ffd576"/>
<rect x="820" y="239" width="36" height="36" rx="8" fill="#aacd5d"/>
<rect x="862" y="239" width="36" height="36" rx="8" fill="#7bd59a"/>
<rect x="904" y="239" width="36" height="36" rx="8" fill="#44d5d7"/>
<rect x="946" y="239" width="36" height="36" rx="8" fill="#64cbff"/>
<rect x="988" y="239" width="36" height="36" rx="8" fill="#8abeff"/>
<rect x="1030" y="239" width="36" height="36" rx="8" fill="#b4abff"/>
<rect x="1072" y="239" width="36" height="36" rx="8" fill="#d3b090"/>
<rect x="1114" y="239" width="36" height="36" rx="8" fill="#d2d6db"/>
<rect x="1156" y="239" width="36" height="36" rx="8" fill="#d6d6d6"/>
<text x="638" y="303" text-anchor="end" font-family="ui-monospace, SFMono-Regular, Menlo, monospace" font-size="12" fill="#61686f">400</text>
<rect x="652" y="281" width="36" height="36" rx="8" fill="#ff61a7"/>
<rect x="694" y="281" width="36" height="36" rx="8" fill="#ff6960"/>
<rect x="736" y="281" width="36" height="36" rx="8" fill="#ff8542"/>
<rect x="778" y="281" width="36" height="36" rx="8" fill="#ffc84c"/>
<rect x="820" y="281" width="36" height="36" rx="8" fill="#8cb809"/>
<rect x="862" y="281" width="36" height="36" rx="8" fill="#4dbf7a"/>
<rect x="904" y="281" width="36" height="36" rx="8" fill="#18bcbe"/>
<rect x="946" y="281" width="36" height="36" rx="8" fill="#01b3f5"/>
<rect x="988" y="281" width="36" height="36" rx="8" fill="#5fa4ff"/>
<rect x="1030" y="281" width="36" height="36" rx="8" fill="#9d8bff"/>
<rect x="1072" y="281" width="36" height="36" rx="8" fill="#c1956f"/>
<rect x="1114" y="281" width="36" height="36" rx="8" fill="#afb5bb"/>
<rect x="1156" y="281" width="36" height="36" rx="8" fill="#b4b4b4"/>
<text x="638" y="345" text-anchor="end" font-family="ui-monospace, SFMono-Regular, Menlo, monospace" font-size="12" fill="#61686f">500</text>
<rect x="652" y="323" width="36" height="36" rx="8" fill="#e7388d"/>
<rect x="694" y="323" width="36" height="36" rx="8" fill="#ee3635"/>
<rect x="736" y="323" width="36" height="36" rx="8" fill="#ec5f00"/>
<rect x="778" y="323" width="36" height="36" rx="8" fill="#feb700"/>
<rect x="820" y="323" width="36" height="36" rx="8" fill="#739c00"/>
<rect x="862" y="323" width="36" height="36" rx="8" fill="#21a65b"/>
<rect x="904" y="323" width="36" height="36" rx="8" fill="#00a0a0"/>
<rect x="946" y="323" width="36" height="36" rx="8" fill="#0097d3"/>
<rect x="988" y="323" width="36" height="36" rx="8" fill="#2b84ff"/>
<rect x="1030" y="323" width="36" height="36" rx="8" fill="#8568f6"/>
<rect x="1072" y="323" width="36" height="36" rx="8" fill="#aa7a53"/>
<rect x="1114" y="323" width="36" height="36" rx="8" fill="#838a91"/>
<rect x="1156" y="323" width="36" height="36" rx="8" fill="#898989"/>
<text x="638" y="387" text-anchor="end" font-family="ui-monospace, SFMono-Regular, Menlo, monospace" font-size="12" fill="#61686f">600</text>
<rect x="652" y="365" width="36" height="36" rx="8" fill="#ca1476"/>
<rect x="694" y="365" width="36" height="36" rx="8" fill="#d20b1b"/>
<rect x="736" y="365" width="36" height="36" rx="8" fill="#c94d00"/>
<rect x="778" y="365" width="36" height="36" rx="8" fill="#e9a400"/>
<rect x="820" y="365" width="36" height="36" rx="8" fill="#588000"/>
<rect x="862" y="365" width="36" height="36" rx="8" fill="#008849"/>
<rect x="904" y="365" width="36" height="36" rx="8" fill="#008282"/>
<rect x="946" y="365" width="36" height="36" rx="8" fill="#007db5"/>
<rect x="988" y="365" width="36" height="36" rx="8" fill="#126be0"/>
<rect x="1030" y="365" width="36" height="36" rx="8" fill="#6e4fdb"/>
<rect x="1072" y="365" width="36" height="36" rx="8" fill="#91633e"/>
<rect x="1114" y="365" width="36" height="36" rx="8" fill="#61686f"/>
<rect x="1156" y="365" width="36" height="36" rx="8" fill="#676767"/>
<text x="638" y="429" text-anchor="end" font-family="ui-monospace, SFMono-Regular, Menlo, monospace" font-size="12" fill="#61686f">700</text>
<rect x="652" y="407" width="36" height="36" rx="8" fill="#a80061"/>
<rect x="694" y="407" width="36" height="36" rx="8" fill="#ac0014"/>
<rect x="736" y="407" width="36" height="36" rx="8" fill="#a83d00"/>
<rect x="778" y="407" width="36" height="36" rx="8" fill="#d28f00"/>
<rect x="820" y="407" width="36" height="36" rx="8" fill="#466c00"/>
<rect x="862" y="407" width="36" height="36" rx="8" fill="#00723c"/>
<rect x="904" y="407" width="36" height="36" rx="8" fill="#006d6d"/>
<rect x="946" y="407" width="36" height="36" rx="8" fill="#006697"/>
<rect x="988" y="407" width="36" height="36" rx="8" fill="#0056bd"/>
<rect x="1030" y="407" width="36" height="36" rx="8" fill="#593eb5"/>
<rect x="1072" y="407" width="36" height="36" rx="8" fill="#784f2e"/>
<rect x="1114" y="407" width="36" height="36" rx="8" fill="#454b51"/>
<rect x="1156" y="407" width="36" height="36" rx="8" fill="#4a4a4a"/>
<text x="638" y="471" text-anchor="end" font-family="ui-monospace, SFMono-Regular, Menlo, monospace" font-size="12" fill="#61686f">800</text>
<rect x="652" y="449" width="36" height="36" rx="8" fill="#85004b"/>
<rect x="694" y="449" width="36" height="36" rx="8" fill="#88000a"/>
<rect x="736" y="449" width="36" height="36" rx="8" fill="#873000"/>
<rect x="778" y="449" width="36" height="36" rx="8" fill="#b57a00"/>
<rect x="820" y="449" width="36" height="36" rx="8" fill="#325600"/>
<rect x="862" y="449" width="36" height="36" rx="8" fill="#005a2e"/>
<rect x="904" y="449" width="36" height="36" rx="8" fill="#005656"/>
<rect x="946" y="449" width="36" height="36" rx="8" fill="#004f79"/>
<rect x="988" y="449" width="36" height="36" rx="8" fill="#004395"/>
<rect x="1030" y="449" width="36" height="36" rx="8" fill="#452f8f"/>
<rect x="1072" y="449" width="36" height="36" rx="8" fill="#5f3b20"/>
<rect x="1114" y="449" width="36" height="36" rx="8" fill="#2e3338"/>
<rect x="1156" y="449" width="36" height="36" rx="8" fill="#333333"/>
<text x="638" y="513" text-anchor="end" font-family="ui-monospace, SFMono-Regular, Menlo, monospace" font-size="12" fill="#61686f">900</text>
<rect x="652" y="491" width="36" height="36" rx="8" fill="#650038"/>
<rect x="694" y="491" width="36" height="36" rx="8" fill="#660006"/>
<rect x="736" y="491" width="36" height="36" rx="8" fill="#692300"/>
<rect x="778" y="491" width="36" height="36" rx="8" fill="#916000"/>
<rect x="820" y="491" width="36" height="36" rx="8" fill="#234200"/>
<rect x="862" y="491" width="36" height="36" rx="8" fill="#004422"/>
<rect x="904" y="491" width="36" height="36" rx="8" fill="#004141"/>
<rect x="946" y="491" width="36" height="36" rx="8" fill="#003c5e"/>
<rect x="988" y="491" width="36" height="36" rx="8" fill="#003272"/>
<rect x="1030" y="491" width="36" height="36" rx="8" fill="#33226c"/>
<rect x="1072" y="491" width="36" height="36" rx="8" fill="#482b14"/>
<rect x="1114" y="491" width="36" height="36" rx="8" fill="#1c2023"/>
<rect x="1156" y="491" width="36" height="36" rx="8" fill="#1f1f1f"/>
</svg>
