<svg xmlns="http://www.w3.org/2000/svg" width="868" height="732" viewBox="0 0 868 732">
<rect width="868" height="732" rx="12" fill="#ffffff"/>
<text x="16" y="26" font-family="ui-sans-serif, system-ui, -apple-system, 'Apple SD Gothic Neo', sans-serif" font-size="13" font-weight="700" fill="#1c2023">라이트 스케일</text>
<text x="147" y="26" text-anchor="middle" font-family="ui-monospace, SFMono-Regular, Menlo, monospace" font-size="11" fill="#1c2023" opacity="0.7">50</text>
<text x="221" y="26" text-anchor="middle" font-family="ui-monospace, SFMono-Regular, Menlo, monospace" font-size="11" fill="#1c2023" opacity="0.7">100</text>
<text x="295" y="26" text-anchor="middle" font-family="ui-monospace, SFMono-Regular, Menlo, monospace" font-size="11" fill="#1c2023" opacity="0.7">200</text>
<text x="369" y="26" text-anchor="middle" font-family="ui-monospace, SFMono-Regular, Menlo, monospace" font-size="11" fill="#1c2023" opacity="0.7">300</text>
<text x="443" y="26" text-anchor="middle" font-family="ui-monospace, SFMono-Regular, Menlo, monospace" font-size="11" fill="#1c2023" opacity="0.7">400</text>
<text x="517" y="26" text-anchor="middle" font-family="ui-monospace, SFMono-Regular, Menlo, monospace" font-size="11" fill="#1c2023" opacity="0.7">500</text>
<text x="591" y="26" text-anchor="middle" font-family="ui-monospace, SFMono-Regular, Menlo, monospace" font-size="11" fill="#1c2023" opacity="0.7">600</text>
<text x="665" y="26" text-anchor="middle" font-family="ui-monospace, SFMono-Regular, Menlo, monospace" font-size="11" fill="#1c2023" opacity="0.7">700</text>
<text x="739" y="26" text-anchor="middle" font-family="ui-monospace, SFMono-Regular, Menlo, monospace" font-size="11" fill="#1c2023" opacity="0.7">800</text>
<text x="813" y="26" text-anchor="middle" font-family="ui-monospace, SFMono-Regular, Menlo, monospace" font-size="11" fill="#1c2023" opacity="0.7">900</text>
<text x="16" y="72" font-family="ui-sans-serif, system-ui, -apple-system, 'Apple SD Gothic Neo', sans-serif" font-size="12" font-weight="600" fill="#1c2023">pink</text>
<rect x="112" y="44" width="70" height="48" rx="6" fill="#fcf0f4"/>
<text x="119" y="83" font-family="ui-monospace, SFMono-Regular, Menlo, monospace" font-size="10" fill="#1c2023">#fcf0f4</text>
<rect x="186" y="44" width="70" height="48" rx="6" fill="#fedde8"/>
<text x="193" y="83" font-family="ui-monospace, SFMono-Regular, Menlo, monospace" font-size="10" fill="#1c2023">#fedde8</text>
<rect x="260" y="44" width="70" height="48" rx="6" fill="#fdbdd3"/>
<text x="267" y="83" font-family="ui-monospace, SFMono-Regular, Menlo, monospace" font-size="10" fill="#1c2023">#fdbdd3</text>
<rect x="334" y="44" width="70" height="48" rx="6" fill="#fb91ba"/>
<text x="341" y="83" font-family="ui-monospace, SFMono-Regular, Menlo, monospace" font-size="10" fill="#1c2023">#fb91ba</text>
<rect x="408" y="44" width="70" height="48" rx="6" fill="#f95ba2"/>
<text x="415" y="83" font-family="ui-monospace, SFMono-Regular, Menlo, monospace" font-size="10" fill="#1c2023">#f95ba2</text>
<rect x="482" y="44" width="70" height="48" rx="6" fill="#e7388d"/>
<text x="489" y="83" font-family="ui-monospace, SFMono-Regular, Menlo, monospace" font-size="10" fill="#1c2023">#e7388d</text>
<rect x="556" y="44" width="70" height="48" rx="6" fill="#ca1476"/>
<text x="563" y="83" font-family="ui-monospace, SFMono-Regular, Menlo, monospace" font-size="10" fill="#f7f8fa">#ca1476</text>
<rect x="630" y="44" width="70" height="48" rx="6" fill="#a80061"/>
<text x="637" y="83" font-family="ui-monospace, SFMono-Regular, Menlo, monospace" font-size="10" fill="#f7f8fa">#a80061</text>
<rect x="704" y="44" width="70" height="48" rx="6" fill="#85004b"/>
<text x="711" y="83" font-family="ui-monospace, SFMono-Regular, Menlo, monospace" font-size="10" fill="#f7f8fa">#85004b</text>
<rect x="778" y="44" width="70" height="48" rx="6" fill="#650038"/>
<text x="785" y="83" font-family="ui-monospace, SFMono-Regular, Menlo, monospace" font-size="10" fill="#f7f8fa">#650038</text>
<text x="16" y="124" font-family="ui-sans-serif, system-ui, -apple-system, 'Apple SD Gothic Neo', sans-serif" font-size="12" font-weight="600" fill="#1c2023">red</text>
<rect x="112" y="96" width="70" height="48" rx="6" fill="#fcf0ee"/>
<text x="119" y="135" font-family="ui-monospace, SFMono-Regular, Menlo, monospace" font-size="10" fill="#1c2023">#fcf0ee</text>
<rect x="186" y="96" width="70" height="48" rx="6" fill="#ffdfd9"/>
<text x="193" y="135" font-family="ui-monospace, SFMono-Regular, Menlo, monospace" font-size="10" fill="#1c2023">#ffdfd9</text>
<rect x="260" y="96" width="70" height="48" rx="6" fill="#fdc1b6"/>
<text x="267" y="135" font-family="ui-monospace, SFMono-Regular, Menlo, monospace" font-size="10" fill="#1c2023">#fdc1b6</text>
<rect x="334" y="96" width="70" height="48" rx="6" fill="#ff9383"/>
<text x="341" y="135" font-family="ui-monospace, SFMono-Regular, Menlo, monospace" font-size="10" fill="#1c2023">#ff9383</text>
<rect x="408" y="96" width="70" height="48" rx="6" fill="#ff5e4c"/>
<text x="415" y="135" font-family="ui-monospace, SFMono-Regular, Menlo, monospace" font-size="10" fill="#1c2023">#ff5e4c</text>
<rect x="482" y="96" width="70" height="48" rx="6" fill="#ee3828"/>
<text x="489" y="135" font-family="ui-monospace, SFMono-Regular, Menlo, monospace" font-size="10" fill="#1c2023">#ee3828</text>
<rect x="556" y="96" width="70" height="48" rx="6" fill="#d11003"/>
<text x="563" y="135" font-family="ui-monospace, SFMono-Regular, Menlo, monospace" font-size="10" fill="#f7f8fa">#d11003</text>
<rect x="630" y="96" width="70" height="48" rx="6" fill="#ad0200"/>
<text x="637" y="135" font-family="ui-monospace, SFMono-Regular, Menlo, monospace" font-size="10" fill="#f7f8fa">#ad0200</text>
<rect x="704" y="96" width="70" height="48" rx="6" fill="#870600"/>
<text x="711" y="135" font-family="ui-monospace, SFMono-Regular, Menlo, monospace" font-size="10" fill="#f7f8fa">#870600</text>
<rect x="778" y="96" width="70" height="48" rx="6" fill="#660200"/>
<text x="785" y="135" font-family="ui-monospace, SFMono-Regular, Menlo, monospace" font-size="10" fill="#f7f8fa">#660200</text>
<text x="16" y="176" font-family="ui-sans-serif, system-ui, -apple-system, 'Apple SD Gothic Neo', sans-serif" font-size="12" font-weight="600" fill="#1c2023">orange</text>
<rect x="112" y="148" width="70" height="48" rx="6" fill="#fff0e5"/>
<text x="119" y="187" font-family="ui-monospace, SFMono-Regular, Menlo, monospace" font-size="10" fill="#1c2023">#fff0e5</text>
<rect x="186" y="148" width="70" height="48" rx="6" fill="#ffe1ca"/>
<text x="193" y="187" font-family="ui-monospace, SFMono-Regular, Menlo, monospace" font-size="10" fill="#1c2023">#ffe1ca</text>
<rect x="260" y="148" width="70" height="48" rx="6" fill="#ffc494"/>
<text x="267" y="187" font-family="ui-monospace, SFMono-Regular, Menlo, monospace" font-size="10" fill="#1c2023">#ffc494</text>
<rect x="334" y="148" width="70" height="48" rx="6" fill="#f3a66e"/>
<text x="341" y="187" font-family="ui-monospace, SFMono-Regular, Menlo, monospace" font-size="10" fill="#1c2023">#f3a66e</text>
<rect x="408" y="148" width="70" height="48" rx="6" fill="#ed7e36"/>
<text x="415" y="187" font-family="ui-monospace, SFMono-Regular, Menlo, monospace" font-size="10" fill="#1c2023">#ed7e36</text>
<rect x="482" y="148" width="70" height="48" rx="6" fill="#de6100"/>
<text x="489" y="187" font-family="ui-monospace, SFMono-Regular, Menlo, monospace" font-size="10" fill="#1c2023">#de6100</text>
<rect x="556" y="148" width="70" height="48" rx="6" fill="#bb4f00"/>
<text x="563" y="187" font-family="ui-monospace, SFMono-Regular, Menlo, monospace" font-size="10" fill="#f7f8fa">#bb4f00</text>
<rect x="630" y="148" width="70" height="48" rx="6" fill="#9c3e00"/>
<text x="637" y="187" font-family="ui-monospace, SFMono-Regular, Menlo, monospace" font-size="10" fill="#f7f8fa">#9c3e00</text>
<rect x="704" y="148" width="70" height="48" rx="6" fill="#7c2f00"/>
<text x="711" y="187" font-family="ui-monospace, SFMono-Regular, Menlo, monospace" font-size="10" fill="#f7f8fa">#7c2f00</text>
<rect x="778" y="148" width="70" height="48" rx="6" fill="#602100"/>
<text x="785" y="187" font-family="ui-monospace, SFMono-Regular, Menlo, monospace" font-size="10" fill="#f7f8fa">#602100</text>
<text x="16" y="228" font-family="ui-sans-serif, system-ui, -apple-system, 'Apple SD Gothic Neo', sans-serif" font-size="12" font-weight="600" fill="#1c2023">yellow</text>
<rect x="112" y="200" width="70" height="48" rx="6" fill="#fdf3da"/>
<text x="119" y="239" font-family="ui-monospace, SFMono-Regular, Menlo, monospace" font-size="10" fill="#1c2023">#fdf3da</text>
<rect x="186" y="200" width="70" height="48" rx="6" fill="#ffecbd"/>
<text x="193" y="239" font-family="ui-monospace, SFMono-Regular, Menlo, monospace" font-size="10" fill="#1c2023">#ffecbd</text>
<rect x="260" y="200" width="70" height="48" rx="6" fill="#ffe29b"/>
<text x="267" y="239" font-family="ui-monospace, SFMono-Regular, Menlo, monospace" font-size="10" fill="#1c2023">#ffe29b</text>
<rect x="334" y="200" width="70" height="48" rx="6" fill="#ffd576"/>
<text x="341" y="239" font-family="ui-monospace, SFMono-Regular, Menlo, monospace" font-size="10" fill="#1c2023">#ffd576</text>
<rect x="408" y="200" width="70" height="48" rx="6" fill="#ffc84c"/>
<text x="415" y="239" font-family="ui-monospace, SFMono-Regular, Menlo, monospace" font-size="10" fill="#1c2023">#ffc84c</text>
<rect x="482" y="200" width="70" height="48" rx="6" fill="#feb700"/>
<text x="489" y="239" font-family="ui-monospace, SFMono-Regular, Menlo, monospace" font-size="10" fill="#1c2023">#feb700</text>
<rect x="556" y="200" width="70" height="48" rx="6" fill="#e9a400"/>
<text x="563" y="239" font-family="ui-monospace, SFMono-Regular, Menlo, monospace" font-size="10" fill="#1c2023">#e9a400</text>
<rect x="630" y="200" width="70" height="48" rx="6" fill="#d28f00"/>
<text x="637" y="239" font-family="ui-monospace, SFMono-Regular, Menlo, monospace" font-size="10" fill="#1c2023">#d28f00</text>
<rect x="704" y="200" width="70" height="48" rx="6" fill="#b57a00"/>
<text x="711" y="239" font-family="ui-monospace, SFMono-Regular, Menlo, monospace" font-size="10" fill="#1c2023">#b57a00</text>
<rect x="778" y="200" width="70" height="48" rx="6" fill="#916000"/>
<text x="785" y="239" font-family="ui-monospace, SFMono-Regular, Menlo, monospace" font-size="10" fill="#f7f8fa">#916000</text>
<text x="16" y="280" font-family="ui-sans-serif, system-ui, -apple-system, 'Apple SD Gothic Neo', sans-serif" font-size="12" font-weight="600" fill="#1c2023">light-green</text>
<rect x="112" y="252" width="70" height="48" rx="6" fill="#eff6e5"/>
<text x="119" y="291" font-family="ui-monospace, SFMono-Regular, Menlo, monospace" font-size="10" fill="#1c2023">#eff6e5</text>
<rect x="186" y="252" width="70" height="48" rx="6" fill="#dfefc4"/>
<text x="193" y="291" font-family="ui-monospace, SFMono-Regular, Menlo, monospace" font-size="10" fill="#1c2023">#dfefc4</text>
<rect x="260" y="252" width="70" height="48" rx="6" fill="#c4dd94"/>
<text x="267" y="291" font-family="ui-monospace, SFMono-Regular, Menlo, monospace" font-size="10" fill="#1c2023">#c4dd94</text>
<rect x="334" y="252" width="70" height="48" rx="6" fill="#a7c959"/>
<text x="341" y="291" font-family="ui-monospace, SFMono-Regular, Menlo, monospace" font-size="10" fill="#1c2023">#a7c959</text>
<rect x="408" y="252" width="70" height="48" rx="6" fill="#87b200"/>
<text x="415" y="291" font-family="ui-monospace, SFMono-Regular, Menlo, monospace" font-size="10" fill="#1c2023">#87b200</text>
<rect x="482" y="252" width="70" height="48" rx="6" fill="#739c00"/>
<text x="489" y="291" font-family="ui-monospace, SFMono-Regular, Menlo, monospace" font-size="10" fill="#1c2023">#739c00</text>
<rect x="556" y="252" width="70" height="48" rx="6" fill="#5d8300"/>
<text x="563" y="291" font-family="ui-monospace, SFMono-Regular, Menlo, monospace" font-size="10" fill="#f7f8fa">#5d8300</text>
<rect x="630" y="252" width="70" height="48" rx="6" fill="#4a6b00"/>
<text x="637" y="291" font-family="ui-monospace, SFMono-Regular, Menlo, monospace" font-size="10" fill="#f7f8fa">#4a6b00</text>
<rect x="704" y="252" width="70" height="48" rx="6" fill="#375500"/>
<text x="711" y="291" font-family="ui-monospace, SFMono-Regular, Menlo, monospace" font-size="10" fill="#f7f8fa">#375500</text>
<rect x="778" y="252" width="70" height="48" rx="6" fill="#284100"/>
<text x="785" y="291" font-family="ui-monospace, SFMono-Regular, Menlo, monospace" font-size="10" fill="#f7f8fa">#284100</text>
<text x="16" y="332" font-family="ui-sans-serif, system-ui, -apple-system, 'Apple SD Gothic Neo', sans-serif" font-size="12" font-weight="600" fill="#1c2023">green</text>
<rect x="112" y="304" width="70" height="48" rx="6" fill="#ecf6ee"/>
<text x="119" y="343" font-family="ui-monospace, SFMono-Regular, Menlo, monospace" font-size="10" fill="#1c2023">#ecf6ee</text>
<rect x="186" y="304" width="70" height="48" rx="6" fill="#d0f1da"/>
<text x="193" y="343" font-family="ui-monospace, SFMono-Regular, Menlo, monospace" font-size="10" fill="#1c2023">#d0f1da</text>
<rect x="260" y="304" width="70" height="48" rx="6" fill="#a6e3b9"/>
<text x="267" y="343" font-family="ui-monospace, SFMono-Regular, Menlo, monospace" font-size="10" fill="#1c2023">#a6e3b9</text>
<rect x="334" y="304" width="70" height="48" rx="6" fill="#77d196"/>
<text x="341" y="343" font-family="ui-monospace, SFMono-Regular, Menlo, monospace" font-size="10" fill="#1c2023">#77d196</text>
<rect x="408" y="304" width="70" height="48" rx="6" fill="#47ba75"/>
<text x="415" y="343" font-family="ui-monospace, SFMono-Regular, Menlo, monospace" font-size="10" fill="#1c2023">#47ba75</text>
<rect x="482" y="304" width="70" height="48" rx="6" fill="#21a65b"/>
<text x="489" y="343" font-family="ui-monospace, SFMono-Regular, Menlo, monospace" font-size="10" fill="#1c2023">#21a65b</text>
<rect x="556" y="304" width="70" height="48" rx="6" fill="#008b4b"/>
<text x="563" y="343" font-family="ui-monospace, SFMono-Regular, Menlo, monospace" font-size="10" fill="#f7f8fa">#008b4b</text>
<rect x="630" y="304" width="70" height="48" rx="6" fill="#00723c"/>
<text x="637" y="343" font-family="ui-monospace, SFMono-Regular, Menlo, monospace" font-size="10" fill="#f7f8fa">#00723c</text>
<rect x="704" y="304" width="70" height="48" rx="6" fill="#005a2e"/>
<text x="711" y="343" font-family="ui-monospace, SFMono-Regular, Menlo, monospace" font-size="10" fill="#f7f8fa">#005a2e</text>
<rect x="778" y="304" width="70" height="48" rx="6" fill="#004422"/>
<text x="785" y="343" font-family="ui-monospace, SFMono-Regular, Menlo, monospace" font-size="10" fill="#f7f8fa">#004422</text>
<text x="16" y="384" font-family="ui-sans-serif, system-ui, -apple-system, 'Apple SD Gothic Neo', sans-serif" font-size="12" font-weight="600" fill="#1c2023">cyan</text>
<rect x="112" y="356" width="70" height="48" rx="6" fill="#e3f8f8"/>
<text x="119" y="395" font-family="ui-monospace, SFMono-Regular, Menlo, monospace" font-size="10" fill="#1c2023">#e3f8f8</text>
<rect x="186" y="356" width="70" height="48" rx="6" fill="#c0f3f2"/>
<text x="193" y="395" font-family="ui-monospace, SFMono-Regular, Menlo, monospace" font-size="10" fill="#1c2023">#c0f3f2</text>
<rect x="260" y="356" width="70" height="48" rx="6" fill="#86e5e5"/>
<text x="267" y="395" font-family="ui-monospace, SFMono-Regular, Menlo, monospace" font-size="10" fill="#1c2023">#86e5e5</text>
<rect x="334" y="356" width="70" height="48" rx="6" fill="#3fd1d3"/>
<text x="341" y="395" font-family="ui-monospace, SFMono-Regular, Menlo, monospace" font-size="10" fill="#1c2023">#3fd1d3</text>
<rect x="408" y="356" width="70" height="48" rx="6" fill="#00b7b9"/>
<text x="415" y="395" font-family="ui-monospace, SFMono-Regular, Menlo, monospace" font-size="10" fill="#1c2023">#00b7b9</text>
<rect x="482" y="356" width="70" height="48" rx="6" fill="#00a0a0"/>
<text x="489" y="395" font-family="ui-monospace, SFMono-Regular, Menlo, monospace" font-size="10" fill="#1c2023">#00a0a0</text>
<rect x="556" y="356" width="70" height="48" rx="6" fill="#008686"/>
<text x="563" y="395" font-family="ui-monospace, SFMono-Regular, Menlo, monospace" font-size="10" fill="#f7f8fa">#008686</text>
<rect x="630" y="356" width="70" height="48" rx="6" fill="#006d6d"/>
<text x="637" y="395" font-family="ui-monospace, SFMono-Regular, Menlo, monospace" font-size="10" fill="#f7f8fa">#006d6d</text>
<rect x="704" y="356" width="70" height="48" rx="6" fill="#005656"/>
<text x="711" y="395" font-family="ui-monospace, SFMono-Regular, Menlo, monospace" font-size="10" fill="#f7f8fa">#005656</text>
<rect x="778" y="356" width="70" height="48" rx="6" fill="#004141"/>
<text x="785" y="395" font-family="ui-monospace, SFMono-Regular, Menlo, monospace" font-size="10" fill="#f7f8fa">#004141</text>
<text x="16" y="436" font-family="ui-sans-serif, system-ui, -apple-system, 'Apple SD Gothic Neo', sans-serif" font-size="12" font-weight="600" fill="#1c2023">light-blue</text>
<rect x="112" y="408" width="70" height="48" rx="6" fill="#e7f6fd"/>
<text x="119" y="447" font-family="ui-monospace, SFMono-Regular, Menlo, monospace" font-size="10" fill="#1c2023">#e7f6fd</text>
<rect x="186" y="408" width="70" height="48" rx="6" fill="#ccedff"/>
<text x="193" y="447" font-family="ui-monospace, SFMono-Regular, Menlo, monospace" font-size="10" fill="#1c2023">#ccedff</text>
<rect x="260" y="408" width="70" height="48" rx="6" fill="#9adcff"/>
<text x="267" y="447" font-family="ui-monospace, SFMono-Regular, Menlo, monospace" font-size="10" fill="#1c2023">#9adcff</text>
<rect x="334" y="408" width="70" height="48" rx="6" fill="#5fc7fa"/>
<text x="341" y="447" font-family="ui-monospace, SFMono-Regular, Menlo, monospace" font-size="10" fill="#1c2023">#5fc7fa</text>
<rect x="408" y="408" width="70" height="48" rx="6" fill="#00aeed"/>
<text x="415" y="447" font-family="ui-monospace, SFMono-Regular, Menlo, monospace" font-size="10" fill="#1c2023">#00aeed</text>
<rect x="482" y="408" width="70" height="48" rx="6" fill="#0097d3"/>
<text x="489" y="447" font-family="ui-monospace, SFMono-Regular, Menlo, monospace" font-size="10" fill="#1c2023">#0097d3</text>
<rect x="556" y="408" width="70" height="48" rx="6" fill="#007db5"/>
<text x="563" y="447" font-family="ui-monospace, SFMono-Regular, Menlo, monospace" font-size="10" fill="#f7f8fa">#007db5</text>
<rect x="630" y="408" width="70" height="48" rx="6" fill="#006697"/>
<text x="637" y="447" font-family="ui-monospace, SFMono-Regular, Menlo, monospace" font-size="10" fill="#f7f8fa">#006697</text>
<rect x="704" y="408" width="70" height="48" rx="6" fill="#004f79"/>
<text x="711" y="447" font-family="ui-monospace, SFMono-Regular, Menlo, monospace" font-size="10" fill="#f7f8fa">#004f79</text>
<rect x="778" y="408" width="70" height="48" rx="6" fill="#003c5e"/>
<text x="785" y="447" font-family="ui-monospace, SFMono-Regular, Menlo, monospace" font-size="10" fill="#f7f8fa">#003c5e</text>
<text x="16" y="488" font-family="ui-sans-serif, system-ui, -apple-system, 'Apple SD Gothic Neo', sans-serif" font-size="12" font-weight="600" fill="#1c2023">blue</text>
<rect x="112" y="460" width="70" height="48" rx="6" fill="#e9f5ff"/>
<text x="119" y="499" font-family="ui-monospace, SFMono-Regular, Menlo, monospace" font-size="10" fill="#1c2023">#e9f5ff</text>
<rect x="186" y="460" width="70" height="48" rx="6" fill="#d5eaff"/>
<text x="193" y="499" font-family="ui-monospace, SFMono-Regular, Menlo, monospace" font-size="10" fill="#1c2023">#d5eaff</text>
<rect x="260" y="460" width="70" height="48" rx="6" fill="#b0d6ff"/>
<text x="267" y="499" font-family="ui-monospace, SFMono-Regular, Menlo, monospace" font-size="10" fill="#1c2023">#b0d6ff</text>
<rect x="334" y="460" width="70" height="48" rx="6" fill="#82baff"/>
<text x="341" y="499" font-family="ui-monospace, SFMono-Regular, Menlo, monospace" font-size="10" fill="#1c2023">#82baff</text>
<rect x="408" y="460" width="70" height="48" rx="6" fill="#549eff"/>
<text x="415" y="499" font-family="ui-monospace, SFMono-Regular, Menlo, monospace" font-size="10" fill="#1c2023">#549eff</text>
<rect x="482" y="460" width="70" height="48" rx="6" fill="#2b84ff"/>
<text x="489" y="499" font-family="ui-monospace, SFMono-Regular, Menlo, monospace" font-size="10" fill="#1c2023">#2b84ff</text>
<rect x="556" y="460" width="70" height="48" rx="6" fill="#126be0"/>
<text x="563" y="499" font-family="ui-monospace, SFMono-Regular, Menlo, monospace" font-size="10" fill="#f7f8fa">#126be0</text>
<rect x="630" y="460" width="70" height="48" rx="6" fill="#0056bd"/>
<text x="637" y="499" font-family="ui-monospace, SFMono-Regular, Menlo, monospace" font-size="10" fill="#f7f8fa">#0056bd</text>
<rect x="704" y="460" width="70" height="48" rx="6" fill="#004395"/>
<text x="711" y="499" font-family="ui-monospace, SFMono-Regular, Menlo, monospace" font-size="10" fill="#f7f8fa">#004395</text>
<rect x="778" y="460" width="70" height="48" rx="6" fill="#003272"/>
<text x="785" y="499" font-family="ui-monospace, SFMono-Regular, Menlo, monospace" font-size="10" fill="#f7f8fa">#003272</text>
<text x="16" y="540" font-family="ui-sans-serif, system-ui, -apple-system, 'Apple SD Gothic Neo', sans-serif" font-size="12" font-weight="600" fill="#1c2023">purple</text>
<rect x="112" y="512" width="70" height="48" rx="6" fill="#f2f3fb"/>
<text x="119" y="551" font-family="ui-monospace, SFMono-Regular, Menlo, monospace" font-size="10" fill="#1c2023">#f2f3fb</text>
<rect x="186" y="512" width="70" height="48" rx="6" fill="#e6e5fa"/>
<text x="193" y="551" font-family="ui-monospace, SFMono-Regular, Menlo, monospace" font-size="10" fill="#1c2023">#e6e5fa</text>
<rect x="260" y="512" width="70" height="48" rx="6" fill="#cfcbfd"/>
<text x="267" y="551" font-family="ui-monospace, SFMono-Regular, Menlo, monospace" font-size="10" fill="#1c2023">#cfcbfd</text>
<rect x="334" y="512" width="70" height="48" rx="6" fill="#b0a6fb"/>
<text x="341" y="551" font-family="ui-monospace, SFMono-Regular, Menlo, monospace" font-size="10" fill="#1c2023">#b0a6fb</text>
<rect x="408" y="512" width="70" height="48" rx="6" fill="#9884fe"/>
<text x="415" y="551" font-family="ui-monospace, SFMono-Regular, Menlo, monospace" font-size="10" fill="#1c2023">#9884fe</text>
<rect x="482" y="512" width="70" height="48" rx="6" fill="#8568f6"/>
<text x="489" y="551" font-family="ui-monospace, SFMono-Regular, Menlo, monospace" font-size="10" fill="#1c2023">#8568f6</text>
<rect x="556" y="512" width="70" height="48" rx="6" fill="#6e4fdb"/>
<text x="563" y="551" font-family="ui-monospace, SFMono-Regular, Menlo, monospace" font-size="10" fill="#f7f8fa">#6e4fdb</text>
<rect x="630" y="512" width="70" height="48" rx="6" fill="#5a39bc"/>
<text x="637" y="551" font-family="ui-monospace, SFMono-Regular, Menlo, monospace" font-size="10" fill="#f7f8fa">#5a39bc</text>
<rect x="704" y="512" width="70" height="48" rx="6" fill="#47259c"/>
<text x="711" y="551" font-family="ui-monospace, SFMono-Regular, Menlo, monospace" font-size="10" fill="#f7f8fa">#47259c</text>
<rect x="778" y="512" width="70" height="48" rx="6" fill="#36117e"/>
<text x="785" y="551" font-family="ui-monospace, SFMono-Regular, Menlo, monospace" font-size="10" fill="#f7f8fa">#36117e</text>
<text x="16" y="592" font-family="ui-sans-serif, system-ui, -apple-system, 'Apple SD Gothic Neo', sans-serif" font-size="12" font-weight="600" fill="#1c2023">brown</text>
<rect x="112" y="564" width="70" height="48" rx="6" fill="#f8f2ec"/>
<text x="119" y="603" font-family="ui-monospace, SFMono-Regular, Menlo, monospace" font-size="10" fill="#1c2023">#f8f2ec</text>
<rect x="186" y="564" width="70" height="48" rx="6" fill="#f3e5d9"/>
<text x="193" y="603" font-family="ui-monospace, SFMono-Regular, Menlo, monospace" font-size="10" fill="#1c2023">#f3e5d9</text>
<rect x="260" y="564" width="70" height="48" rx="6" fill="#e6cdb9"/>
<text x="267" y="603" font-family="ui-monospace, SFMono-Regular, Menlo, monospace" font-size="10" fill="#1c2023">#e6cdb9</text>
<rect x="334" y="564" width="70" height="48" rx="6" fill="#cfac8c"/>
<text x="341" y="603" font-family="ui-monospace, SFMono-Regular, Menlo, monospace" font-size="10" fill="#1c2023">#cfac8c</text>
<rect x="408" y="564" width="70" height="48" rx="6" fill="#bc906a"/>
<text x="415" y="603" font-family="ui-monospace, SFMono-Regular, Menlo, monospace" font-size="10" fill="#1c2023">#bc906a</text>
<rect x="482" y="564" width="70" height="48" rx="6" fill="#aa7a53"/>
<text x="489" y="603" font-family="ui-monospace, SFMono-Regular, Menlo, monospace" font-size="10" fill="#1c2023">#aa7a53</text>
<rect x="556" y="564" width="70" height="48" rx="6" fill="#91633e"/>
<text x="563" y="603" font-family="ui-monospace, SFMono-Regular, Menlo, monospace" font-size="10" fill="#f7f8fa">#91633e</text>
<rect x="630" y="564" width="70" height="48" rx="6" fill="#784f2e"/>
<text x="637" y="603" font-family="ui-monospace, SFMono-Regular, Menlo, monospace" font-size="10" fill="#f7f8fa">#784f2e</text>
<rect x="704" y="564" width="70" height="48" rx="6" fill="#5f3b20"/>
<text x="711" y="603" font-family="ui-monospace, SFMono-Regular, Menlo, monospace" font-size="10" fill="#f7f8fa">#5f3b20</text>
<rect x="778" y="564" width="70" height="48" rx="6" fill="#482b14"/>
<text x="785" y="603" font-family="ui-monospace, SFMono-Regular, Menlo, monospace" font-size="10" fill="#f7f8fa">#482b14</text>
<text x="16" y="644" font-family="ui-sans-serif, system-ui, -apple-system, 'Apple SD Gothic Neo', sans-serif" font-size="12" font-weight="600" fill="#1c2023">cool-gray</text>
<rect x="112" y="616" width="70" height="48" rx="6" fill="#f7f8fa"/>
<text x="119" y="655" font-family="ui-monospace, SFMono-Regular, Menlo, monospace" font-size="10" fill="#1c2023">#f7f8fa</text>
<rect x="186" y="616" width="70" height="48" rx="6" fill="#f2f4f5"/>
<text x="193" y="655" font-family="ui-monospace, SFMono-Regular, Menlo, monospace" font-size="10" fill="#1c2023">#f2f4f5</text>
<rect x="260" y="616" width="70" height="48" rx="6" fill="#e7eaed"/>
<text x="267" y="655" font-family="ui-monospace, SFMono-Regular, Menlo, monospace" font-size="10" fill="#1c2023">#e7eaed</text>
<rect x="334" y="616" width="70" height="48" rx="6" fill="#d2d6db"/>
<text x="341" y="655" font-family="ui-monospace, SFMono-Regular, Menlo, monospace" font-size="10" fill="#1c2023">#d2d6db</text>
<rect x="408" y="616" width="70" height="48" rx="6" fill="#afb5bb"/>
<text x="415" y="655" font-family="ui-monospace, SFMono-Regular, Menlo, monospace" font-size="10" fill="#1c2023">#afb5bb</text>
<rect x="482" y="616" width="70" height="48" rx="6" fill="#838a91"/>
<text x="489" y="655" font-family="ui-monospace, SFMono-Regular, Menlo, monospace" font-size="10" fill="#1c2023">#838a91</text>
<rect x="556" y="616" width="70" height="48" rx="6" fill="#61686f"/>
<text x="563" y="655" font-family="ui-monospace, SFMono-Regular, Menlo, monospace" font-size="10" fill="#f7f8fa">#61686f</text>
<rect x="630" y="616" width="70" height="48" rx="6" fill="#454b51"/>
<text x="637" y="655" font-family="ui-monospace, SFMono-Regular, Menlo, monospace" font-size="10" fill="#f7f8fa">#454b51</text>
<rect x="704" y="616" width="70" height="48" rx="6" fill="#2e3338"/>
<text x="711" y="655" font-family="ui-monospace, SFMono-Regular, Menlo, monospace" font-size="10" fill="#f7f8fa">#2e3338</text>
<rect x="778" y="616" width="70" height="48" rx="6" fill="#1c2023"/>
<text x="785" y="655" font-family="ui-monospace, SFMono-Regular, Menlo, monospace" font-size="10" fill="#f7f8fa">#1c2023</text>
<text x="16" y="696" font-family="ui-sans-serif, system-ui, -apple-system, 'Apple SD Gothic Neo', sans-serif" font-size="12" font-weight="600" fill="#1c2023">neutral-gray</text>
<rect x="112" y="668" width="70" height="48" rx="6" fill="#f8f8f8"/>
<text x="119" y="707" font-family="ui-monospace, SFMono-Regular, Menlo, monospace" font-size="10" fill="#1c2023">#f8f8f8</text>
<rect x="186" y="668" width="70" height="48" rx="6" fill="#f3f3f3"/>
<text x="193" y="707" font-family="ui-monospace, SFMono-Regular, Menlo, monospace" font-size="10" fill="#1c2023">#f3f3f3</text>
<rect x="260" y="668" width="70" height="48" rx="6" fill="#e9e9e9"/>
<text x="267" y="707" font-family="ui-monospace, SFMono-Regular, Menlo, monospace" font-size="10" fill="#1c2023">#e9e9e9</text>
<rect x="334" y="668" width="70" height="48" rx="6" fill="#d6d6d6"/>
<text x="341" y="707" font-family="ui-monospace, SFMono-Regular, Menlo, monospace" font-size="10" fill="#1c2023">#d6d6d6</text>
<rect x="408" y="668" width="70" height="48" rx="6" fill="#b4b4b4"/>
<text x="415" y="707" font-family="ui-monospace, SFMono-Regular, Menlo, monospace" font-size="10" fill="#1c2023">#b4b4b4</text>
<rect x="482" y="668" width="70" height="48" rx="6" fill="#898989"/>
<text x="489" y="707" font-family="ui-monospace, SFMono-Regular, Menlo, monospace" font-size="10" fill="#1c2023">#898989</text>
<rect x="556" y="668" width="70" height="48" rx="6" fill="#676767"/>
<text x="563" y="707" font-family="ui-monospace, SFMono-Regular, Menlo, monospace" font-size="10" fill="#f7f8fa">#676767</text>
<rect x="630" y="668" width="70" height="48" rx="6" fill="#4a4a4a"/>
<text x="637" y="707" font-family="ui-monospace, SFMono-Regular, Menlo, monospace" font-size="10" fill="#f7f8fa">#4a4a4a</text>
<rect x="704" y="668" width="70" height="48" rx="6" fill="#333333"/>
<text x="711" y="707" font-family="ui-monospace, SFMono-Regular, Menlo, monospace" font-size="10" fill="#f7f8fa">#333333</text>
<rect x="778" y="668" width="70" height="48" rx="6" fill="#1f1f1f"/>
<text x="785" y="707" font-family="ui-monospace, SFMono-Regular, Menlo, monospace" font-size="10" fill="#f7f8fa">#1f1f1f</text>
</svg>
